C:\Users\u0150099\Documents\PredSim_dev\Subjects\test_1\MuscleAnalysis\dummy_motion.mot
version=1
nRows=10
nColumns=32
inDegrees=no
endheader
                time	         pelvis_tilt	         pelvis_list	     pelvis_rotation	           pelvis_tx	           pelvis_ty	           pelvis_tz	       hip_flexion_l	     hip_adduction_l	      hip_rotation_l	       hip_flexion_r	     hip_adduction_r	      hip_rotation_r	        knee_angle_l	        knee_angle_r	       ankle_angle_l	       ankle_angle_r	    subtalar_angle_l	    subtalar_angle_r	         mtp_angle_l	         mtp_angle_r	    lumbar_extension	      lumbar_bending	     lumbar_rotation	          arm_flex_l	           arm_add_l	           arm_rot_l	          arm_flex_r	           arm_add_r	           arm_rot_r	        elbow_flex_l	        elbow_flex_r	
         37.51000000	          0.00000000	          0.00000000	          0.00000000	          0.00000000	          0.00000000	          0.00000000	          0.63718785	         -0.35576831	          0.06300294	          0.06333826	          0.15916787	         -0.27316154	         -1.06099532	         -0.41679697	         -0.19184133	         -0.29885684	         -0.04639092	          0.41964295	          0.08852211	         -0.24234153	          0.16980089	          0.17078988	          0.02845932	         -0.32009665	          0.48836943	         -0.19735804	         -0.35452223	         -0.31196109	          0.09640447	          0.29875529	          0.14161491	
         37.52000000	          0.00000000	          0.00000000	          0.00000000	          0.00000000	          0.00000000	          0.00000000	          0.07947305	          0.47148893	          0.36190060	          0.83350759	         -0.38669303	          0.21881432	         -0.51449056	         -0.85644181	         -0.37602878	          0.06108467	         -0.45295019	         -0.13626676	          0.31708288	         -0.33728071	          0.31958056	         -0.21258602	          0.20845067	          0.30541078	          0.03079411	          0.42107148	         -0.25903084	          0.34874453	          0.22556584	         -0.24728086	          0.39970000	
         37.53000000	          0.00000000	          0.00000000	          0.00000000	          0.00000000	          0.00000000	          0.00000000	         -0.35611002	          0.35263393	         -0.16281703	          0.76959953	          0.40732798	          0.13766889	         -0.83374045	         -0.38404851	         -0.46167698	          0.05633841	         -0.43940992	         -0.03941858	          0.57397912	         -0.20593045	          0.27083129	         -0.50798015	         -0.47753740	         -0.12656330	          0.44149318	         -0.40060341	         -0.19616916	         -0.48525418	         -0.17466593	         -0.50910843	         -0.05624943	
         37.54000000	          0.00000000	          0.00000000	          0.00000000	          0.00000000	          0.00000000	          0.00000000	         -0.19991521	          0.06033479	         -0.22218458	          0.54511317	          0.19049990	         -0.33769603	         -0.12885313	         -1.33394373	          0.23796854	          0.35031985	         -0.03054129	          0.03827333	         -0.22250817	          0.68609003	          0.43158190	          0.37952263	         -0.46826504	          0.02615331	          0.14661526	         -0.28804120	          0.45903120	         -0.46481498	          0.29670482	         -0.23021352	          0.19866909	
         37.55000000	          0.00000000	          0.00000000	          0.00000000	          0.00000000	          0.00000000	          0.00000000	         -0.18983842	          0.36151322	         -0.38124587	          0.26726555	          0.06540887	          0.38460930	         -0.92027906	         -1.05606017	          0.10231060	          0.51490868	         -0.01650677	         -0.17770168	          0.63509965	          0.55762151	          0.36936134	         -0.14475165	         -0.46367224	         -0.08587963	          0.44551834	         -0.31036219	          0.50358438	          0.29127632	         -0.11697525	         -0.43086642	          0.50938550	
         37.56000000	          0.00000000	          0.00000000	          0.00000000	          0.00000000	          0.00000000	          0.00000000	         -0.18236954	         -0.18620192	          0.08396595	          0.37013061	          0.06830135	         -0.20769257	         -1.01765515	         -1.18858065	          0.44716603	          0.38030052	         -0.50231796	          0.50410538	         -0.22840582	          0.67243366	         -0.04908433	         -0.46267216	          0.18297171	         -0.45575993	         -0.22932808	         -0.11646278	         -0.07739705	          0.44712379	          0.07403165	          0.32783786	          0.47845575	
         37.57000000	          0.00000000	          0.00000000	          0.00000000	          0.00000000	          0.00000000	          0.00000000	          0.47526975	         -0.51721384	         -0.02709956	          0.85738802	         -0.33184316	          0.00398987	         -0.38839269	         -1.31365458	         -0.32334864	         -0.00896188	         -0.45711089	         -0.36989537	          0.48774991	          0.05938476	         -0.39983445	          0.06079427	          0.52125850	         -0.48071037	          0.51914384	          0.16021429	          0.23674488	          0.13506850	         -0.28646845	         -0.29725254	          0.28064049	
         37.58000000	          0.00000000	          0.00000000	          0.00000000	          0.00000000	          0.00000000	          0.00000000	         -0.46325757	          0.10684627	         -0.26202087	          0.80520452	          0.15552596	          0.14026556	         -1.35674559	         -1.33701164	         -0.38514558	         -0.20132308	          0.11737928	          0.11268970	          0.49323525	          0.86953890	         -0.02512239	          0.47700680	         -0.49588920	         -0.04408267	          0.07288430	          0.25985490	          0.03428320	          0.20683773	          0.14603011	          0.22530418	         -0.35118062	
         37.59000000	          0.00000000	          0.00000000	          0.00000000	          0.00000000	          0.00000000	          0.00000000	          0.56113072	          0.39737956	          0.23013321	         -0.71115424	         -0.41751944	          0.22946203	         -0.13776414	         -0.76084479	          0.02167384	         -0.23882247	          0.31601550	         -0.00477824	          0.60138740	          0.32271132	         -0.49361831	          0.30723910	         -0.22161396	          0.32046935	          0.32454311	         -0.33173481	          0.28375776	          0.47107120	          0.21095816	         -0.52189001	          0.44849381	
         37.60000000	          0.00000000	          0.00000000	          0.00000000	          0.00000000	          0.00000000	          0.00000000	          0.25066304	         -0.27909297	          0.42149163	         -0.73062699	         -0.29164956	         -0.52161674	         -0.64908002	         -1.55469504	         -0.45333882	          0.34710332	          0.03514627	          0.41711435	          0.81147823	          0.82630413	          0.03677622	          0.52222383	         -0.23462610	         -0.15591122	          0.36650935	          0.48205218	         -0.22825638	          0.24117691	         -0.42924646	         -0.09295122	         -0.06027565	
